HIERARCHY
ROOT Hips
{
	OFFSET 0.000000 0.000000 0.000000
	CHANNELS 6 Xposition Yposition Zposition Zrotation Yrotation Xrotation 
	JOINT LHipJoint
	{
		OFFSET 0.000000 0.000000 0.000000
		CHANNELS 3 Zrotation Yrotation Xrotation
		JOINT LeftUpLeg
		{
			OFFSET 1.363060 -1.794630 0.839290
			CHANNELS 3 Zrotation Yrotation Xrotation
			JOINT LeftLeg
			{
				OFFSET 2.448110 -6.726130 0.000000
				CHANNELS 3 Zrotation Yrotation Xrotation
				JOINT LeftFoot
				{
					OFFSET 2.562200 -7.039590 0.000000
					CHANNELS 3 Zrotation Yrotation Xrotation
					JOINT LeftToeBase
					{
						OFFSET 0.157640 -0.433110 2.322550
						CHANNELS 3 Zrotation Yrotation Xrotation
						End Site
						{
							OFFSET 0.000000 0.000000 0.000000
						}
					}
				}
			}
		}
	}
	JOINT RHipJoint
	{
		OFFSET 0.000000 0.000000 0.000000
		CHANNELS 3 Zrotation Yrotation Xrotation
		JOINT RightUpLeg
		{
			OFFSET -1.305520 -1.794630 0.839290
			CHANNELS 3 Zrotation Yrotation Xrotation
			JOINT RightLeg
			{
				OFFSET -2.542530 -6.985550 0.000000
				CHANNELS 3 Zrotation Yrotation Xrotation
				JOINT RightFoot
				{
					OFFSET -2.568260 -7.056230 0.000000
					CHANNELS 3 Zrotation Yrotation Xrotation
					JOINT RightToeBase
					{
						OFFSET -0.164730 -0.452590 2.363150
						CHANNELS 3 Zrotation Yrotation Xrotation
						End Site
						{
							OFFSET 0.000000 0.000000 0.000000
						}
					}
				}
			}
		}
	}
}
MOTION
Frames: 16
Frame Time: 0.008333
3.256790 17.361544 -0.976393 154.134131 -78.190578 -144.015074 -10.492079 2.189331 0.071694 -8.882164 12.983115 -20.363491 -1.394884 0.623822 23.020610 2.483602 17.916001 2.438941 3.335800 -0.000000 -46.182000 9.486409 -1.710445 3.224209 7.160478 4.664373 -13.030681 1.766400 0.131881 12.855650 -1.498218 -5.422867 -8.708288 -0.216900 0.000000 -51.052600
3.271532 17.360676 -1.005718 153.304461 -77.895330 -143.928668 -10.431588 2.106962 -0.166115 -8.911997 13.112258 -21.023697 -1.289998 0.818518 25.308437 2.455671 17.819951 3.124330 3.484400 0.000000 -44.141600 9.631396 -1.660470 3.003202 6.864305 4.463095 -12.316812 1.712849 0.018081 13.381300 -1.481480 -5.315250 -8.888395 -0.178100 0.000000 -51.286201
3.287765 17.359152 -1.034875 152.377998 -77.685579 -143.624387 -10.363674 2.002103 -0.361726 -8.958850 13.191052 -21.850185 -1.214132 0.972294 27.157684 2.399878 17.505099 3.780613 3.578700 -0.000000 -41.796500 9.776163 -1.613008 2.788488 6.588670 4.166281 -11.754791 1.672668 -0.082583 13.849082 -1.453570 -5.151390 -9.046031 -0.143100 0.000000 -51.516200
3.304790 17.357416 -1.064330 151.310921 -77.579227 -143.036044 -10.282656 1.872955 -0.501386 -9.030917 13.174016 -22.868028 -1.171590 1.082293 28.522055 2.322215 17.002058 4.342404 3.605500 0.000000 -39.342400 9.920105 -1.568362 2.588549 6.335800 3.780229 -11.371665 1.644122 -0.167483 14.252785 -1.418991 -4.950815 -9.187848 -0.112100 0.000000 -51.718500
3.322240 17.355901 -1.094269 150.058349 -77.587818 -142.108799 -10.182867 1.719001 -0.577211 -9.133311 13.019555 -24.074894 -1.164978 1.147409 29.359139 2.228811 16.355174 4.774450 3.567300 0.000000 -36.980800 10.063715 -1.525284 2.405304 6.107907 3.311967 -11.170137 1.625109 -0.235393 14.583880 -1.382015 -4.735170 -9.314454 -0.085600 0.000000 -51.880600
3.339965 17.354985 -1.124803 148.566713 -77.717411 -140.785057 -10.058508 1.541034 -0.584038 -9.268040 12.687340 -25.454772 -1.194792 1.167506 29.633204 2.126434 15.621729 5.083151 3.484100 0.000000 -34.964600 10.208355 -1.481368 2.238590 5.906742 2.776723 -11.142895 1.612819 -0.286138 14.834897 -1.347713 -4.532139 -9.422497 -0.064400 0.000000 -51.999500
3.357738 17.354726 -1.155586 146.804199 -77.973877 -139.026292 -9.906523 1.339738 -0.515867 -9.423376 12.140946 -27.004924 -1.260387 1.144012 29.342002 2.020761 14.848368 5.281042 3.375800 0.000000 -33.377300 10.351457 -1.434649 2.089468 5.747512 2.197604 -11.289557 1.605852 -0.319529 15.007995 -1.322358 -4.373502 -9.517380 -0.048099 0.000000 -52.054000
3.375600 17.355104 -1.186047 144.729230 -78.356199 -136.790151 -9.724631 1.117451 -0.368404 -9.578418 11.347589 -28.709488 -1.359471 1.078417 28.487779 1.917900 14.086279 5.408260 3.268700 -0.000000 -32.276200 10.490499 -1.382165 1.956584 5.644538 1.603337 -11.601454 1.602447 -0.336078 15.105781 -1.312050 -4.291590 -9.600872 -0.036500 0.000000 -52.037500
3.393744 17.355855 -1.215323 142.304552 -78.861076 -134.045191 -9.513121 0.877117 -0.140834 -9.695291 10.288953 -30.547053 -1.488035 0.972937 27.096236 1.822633 13.375824 5.513243 3.185700 0.000000 -31.658800 10.621779 -1.320807 1.832042 5.617321 1.011998 -12.060798 1.602613 -0.337520 15.140279 -1.320752 -4.306106 -9.680193 -0.028700 -0.000001 -51.925099
3.412217 17.356784 -1.242489 139.475864 -79.473725 -130.742362 -9.273846 0.624430 0.169365 -9.733042 8.954369 -32.499337 -1.640352 0.828662 25.197518 1.740908 12.766516 5.659747 3.153000 0.000000 -31.495700 10.740854 -1.247189 1.711454 5.677653 0.457173 -12.649935 1.604602 -0.324796 15.116794 -1.353237 -4.442489 -9.753383 -0.024800 0.000001 -51.725100
3.431533 17.357549 -1.266522 136.183330 -80.175346 -126.837454 -9.011775 0.364958 0.559462 -9.642903 7.363316 -34.557747 -1.809011 0.647339 22.855633 1.675984 12.287464 5.895960 3.185700 -0.000000 -31.681400 10.842081 -1.158189 1.585754 5.837337 -0.037863 -13.343911 1.607993 -0.299713 15.047266 -1.411724 -4.711036 -9.821569 -0.024701 0.000000 -51.447800
3.452435 17.357858 -1.286678 132.322279 -80.945953 -122.249301 -8.732644 0.105193 1.021131 -9.382758 5.562594 -36.719630 -1.984578 0.431027 20.158676 1.627869 11.946737 6.259297 3.290100 0.000000 -32.053601 10.922217 -1.051164 1.441405 6.100772 -0.470106 -14.109403 1.613280 -0.264619 14.943578 -1.495001 -5.104213 -9.883961 -0.028500 -0.000000 -51.070299
3.475302 17.357592 -1.302529 127.772818 -81.752041 -116.878030 -8.443556 -0.146649 1.540695 -8.941633 3.639680 -39.014332 -2.159026 0.184072 17.225300 1.592335 11.719141 6.753952 3.457101 -0.000000 -32.458000 10.977152 -0.925201 1.275065 6.462152 -0.820082 -14.924639 1.619339 -0.220649 14.815975 -1.602481 -5.617570 -9.936462 -0.037100 -0.000000 -50.637200
3.500725 17.356836 -1.314316 122.336122 -82.557678 -110.551739 -8.149006 -0.380318 2.095723 -8.348165 1.703836 -41.475309 -2.326877 -0.085471 14.192958 1.558947 11.539555 7.367473 3.661401 -0.000000 -32.785800 11.008501 -0.779584 1.082102 6.904487 -1.096104 -15.767748 1.625762 -0.169328 14.676426 -1.729655 -6.227150 -9.975231 -0.051100 -0.000001 -50.154700
3.528965 17.355874 -1.322858 115.775811 -83.314191 -103.055892 -7.851247 -0.582350 2.660469 -7.681981 -0.134626 -44.139751 -2.489714 -0.366185 11.198145 1.512567 11.312891 8.070635 3.862900 0.000000 -33.026100 11.021131 -0.613498 0.863464 7.397997 -1.315350 -16.629846 1.631571 -0.111458 14.537819 -1.870163 -6.900685 -9.995971 -0.071300 -0.000000 -49.651000
3.560107 17.355104 -1.329353 107.900417 -83.957541 -94.215166 -7.552769 -0.738112 3.213177 -7.057963 -1.799779 -47.031053 -2.656329 -0.646419 8.348907 1.437207 10.941276 8.831438 4.015700 -0.000000 -33.255601 11.019704 -0.425263 0.622655 7.902725 -1.505241 -17.517143 1.635711 -0.047412 14.414780 -2.016019 -7.598491 -9.995541 -0.098300 0.000000 -49.157500
